%TF.GenerationSoftware,KiCad,Pcbnew,10.0.1*%
%TF.CreationDate,2026-06-27T15:19:23+03:00*%
%TF.ProjectId,kurs4,6b757273-342e-46b6-9963-61645f706362,rev?*%
%TF.SameCoordinates,Original*%
%TF.FileFunction,Copper,L2,Bot*%
%TF.FilePolarity,Positive*%
%FSLAX46Y46*%
G04 Gerber Fmt 4.6, Leading zero omitted, Abs format (unit mm)*
G04 Created by KiCad (PCBNEW 10.0.1) date 2026-06-27 15:19:23*
%MOMM*%
%LPD*%
G01*
G04 APERTURE LIST*
G04 Aperture macros list*
%AMRoundRect*
0 Rectangle with rounded corners*
0 $1 Rounding radius*
0 $2 $3 $4 $5 $6 $7 $8 $9 X,Y pos of 4 corners*
0 Add a 4 corners polygon primitive as box body*
4,1,4,$2,$3,$4,$5,$6,$7,$8,$9,$2,$3,0*
0 Add four circle primitives for the rounded corners*
1,1,$1+$1,$2,$3*
1,1,$1+$1,$4,$5*
1,1,$1+$1,$6,$7*
1,1,$1+$1,$8,$9*
0 Add four rect primitives between the rounded corners*
20,1,$1+$1,$2,$3,$4,$5,0*
20,1,$1+$1,$4,$5,$6,$7,0*
20,1,$1+$1,$6,$7,$8,$9,0*
20,1,$1+$1,$8,$9,$2,$3,0*%
G04 Aperture macros list end*
%TA.AperFunction,ComponentPad*%
%ADD10C,1.600000*%
%TD*%
%TA.AperFunction,ComponentPad*%
%ADD11RoundRect,0.250000X1.050000X1.050000X-1.050000X1.050000X-1.050000X-1.050000X1.050000X-1.050000X0*%
%TD*%
%TA.AperFunction,ComponentPad*%
%ADD12C,2.600000*%
%TD*%
%TA.AperFunction,ComponentPad*%
%ADD13R,1.050000X1.500000*%
%TD*%
%TA.AperFunction,ComponentPad*%
%ADD14O,1.050000X1.500000*%
%TD*%
%TA.AperFunction,ComponentPad*%
%ADD15RoundRect,0.250000X-0.550000X-0.550000X0.550000X-0.550000X0.550000X0.550000X-0.550000X0.550000X0*%
%TD*%
%TA.AperFunction,ComponentPad*%
%ADD16RoundRect,0.250000X-1.050000X-1.050000X1.050000X-1.050000X1.050000X1.050000X-1.050000X1.050000X0*%
%TD*%
%TA.AperFunction,Conductor*%
%ADD17C,0.200000*%
%TD*%
G04 APERTURE END LIST*
D10*
%TO.P,R1,1*%
%TO.N,+12V*%
X120500000Y-116080000D03*
%TO.P,R1,2*%
%TO.N,Net-(Q1-B)*%
X120500000Y-105920000D03*
%TD*%
D11*
%TO.P,J1,1,Pin_1_1*%
%TO.N,GND*%
X130500000Y-89500000D03*
D12*
%TO.P,J1,2,Pin_2_2*%
%TO.N,unconnected-(J1-Pin_2-Pad2)*%
X125420000Y-89500000D03*
%TD*%
D13*
%TO.P,Q1,1,C_1*%
%TO.N,Net-(Q1-C)*%
X118230000Y-102360000D03*
D14*
%TO.P,Q1,2,B_2*%
%TO.N,Net-(Q1-B)*%
X119500000Y-102360000D03*
%TO.P,Q1,3,E_3*%
%TO.N,Net-(Q1-E)*%
X120770000Y-102360000D03*
%TD*%
D15*
%TO.P,C3,1*%
%TO.N,Net-(Q1-C)*%
X116000000Y-95500000D03*
D10*
%TO.P,C3,2*%
%TO.N,/SesKuvvetlendirici/AUDIO_OUT*%
X121000000Y-95500000D03*
%TD*%
D16*
%TO.P,J3,1,Pin_1_1*%
%TO.N,+12V*%
X125455000Y-112172500D03*
D12*
%TO.P,J3,2,Pin_2_2*%
%TO.N,GND*%
X130535000Y-112172500D03*
%TD*%
D10*
%TO.P,R2,1*%
%TO.N,Net-(Q1-B)*%
X122420000Y-79500000D03*
%TO.P,R2,2*%
%TO.N,GND*%
X132580000Y-79500000D03*
%TD*%
D16*
%TO.P,J2,1,Pin_1_1*%
%TO.N,/SesKuvvetlendirici/AUDIO_OUT*%
X125455000Y-101172500D03*
D12*
%TO.P,J2,2,Pin_2_2*%
%TO.N,GND*%
X130535000Y-101172500D03*
%TD*%
D15*
%TO.P,C1,1*%
%TO.N,Net-(Q1-E)*%
X115000000Y-80500000D03*
D10*
%TO.P,C1,2*%
%TO.N,GND*%
X120000000Y-80500000D03*
%TD*%
%TO.P,R4,1*%
%TO.N,Net-(Q1-E)*%
X122420000Y-82500000D03*
%TO.P,R4,2*%
%TO.N,GND*%
X132580000Y-82500000D03*
%TD*%
%TO.P,R3,1*%
%TO.N,+12V*%
X117500000Y-116000000D03*
%TO.P,R3,2*%
%TO.N,Net-(Q1-C)*%
X117500000Y-105840000D03*
%TD*%
D15*
%TO.P,C2,1*%
%TO.N,Net-(Q1-B)*%
X116000000Y-88000000D03*
D10*
%TO.P,C2,2*%
%TO.N,/SesKuvvetlendirici/AUDIO_IN*%
X121000000Y-88000000D03*
%TD*%
%TO.N,GND*%
D17*
X130500000Y-89500000D02*
X130500000Y-101137500D01*
X120799999Y-81299999D02*
X130780001Y-81299999D01*
X130535000Y-101172500D02*
X130535000Y-112172500D01*
X132580000Y-87420000D02*
X130500000Y-89500000D01*
X132580000Y-79500000D02*
X132580000Y-82500000D01*
X132580000Y-82500000D02*
X132580000Y-87420000D01*
X120000000Y-80500000D02*
X120799999Y-81299999D01*
X130500000Y-101137500D02*
X130535000Y-101172500D01*
X130780001Y-81299999D02*
X132580000Y-79500000D01*
%TO.N,Net-(Q1-E)*%
X122420000Y-82500000D02*
X119500000Y-85420000D01*
X119500000Y-100140000D02*
X120770000Y-101410000D01*
X115000000Y-80500000D02*
X117000000Y-82500000D01*
X120770000Y-101410000D02*
X120770000Y-102360000D01*
X119500000Y-85420000D02*
X119500000Y-100140000D01*
X117000000Y-82500000D02*
X122420000Y-82500000D01*
%TO.N,Net-(Q1-B)*%
X122320000Y-79400000D02*
X114215256Y-79400000D01*
X119500000Y-101410000D02*
X119500000Y-102360000D01*
X119500000Y-104920000D02*
X119500000Y-102360000D01*
X113900000Y-79715256D02*
X113900000Y-85900000D01*
X122420000Y-79500000D02*
X122320000Y-79400000D01*
X116000000Y-88000000D02*
X116000000Y-93500000D01*
X116000000Y-93500000D02*
X117500000Y-95000000D01*
X120500000Y-105920000D02*
X119500000Y-104920000D01*
X118590000Y-100500000D02*
X119500000Y-101410000D01*
X113900000Y-85900000D02*
X116000000Y-88000000D01*
X117500000Y-100500000D02*
X118590000Y-100500000D01*
X117500000Y-95000000D02*
X117500000Y-100500000D01*
X114215256Y-79400000D02*
X113900000Y-79715256D01*
%TO.N,Net-(Q1-C)*%
X117370000Y-101500000D02*
X117000000Y-101500000D01*
X118230000Y-102360000D02*
X117370000Y-101500000D01*
X117500000Y-103090000D02*
X118230000Y-102360000D01*
X116000000Y-100500000D02*
X116000000Y-95500000D01*
X117000000Y-101500000D02*
X116000000Y-100500000D01*
X117500000Y-105840000D02*
X117500000Y-103090000D01*
%TO.N,/SesKuvvetlendirici/AUDIO_OUT*%
X125455000Y-101172500D02*
X121000000Y-96717500D01*
X121000000Y-96717500D02*
X121000000Y-95500000D01*
%TO.N,+12V*%
X119920000Y-116080000D02*
X119840000Y-116000000D01*
X120500000Y-116080000D02*
X119920000Y-116080000D01*
X125455000Y-112172500D02*
X124407500Y-112172500D01*
X119840000Y-116000000D02*
X117500000Y-116000000D01*
X124407500Y-112172500D02*
X120500000Y-116080000D01*
%TD*%
%TA.AperFunction,Conductor*%
%TO.N,GND*%
G36*
X118691763Y-80020185D02*
G01*
X118737518Y-80072989D01*
X118747462Y-80142147D01*
X118742655Y-80162817D01*
X118732011Y-80195574D01*
X118732010Y-80195581D01*
X118700000Y-80397682D01*
X118700000Y-80602317D01*
X118732009Y-80804417D01*
X118795244Y-80999031D01*
X118888141Y-81181350D01*
X118888147Y-81181359D01*
X118920523Y-81225921D01*
X118920524Y-81225922D01*
X119600000Y-80546446D01*
X119600000Y-80552661D01*
X119627259Y-80654394D01*
X119679920Y-80745606D01*
X119754394Y-80820080D01*
X119845606Y-80872741D01*
X119947339Y-80900000D01*
X119953553Y-80900000D01*
X119274076Y-81579474D01*
X119318650Y-81611859D01*
X119422974Y-81665015D01*
X119473770Y-81712989D01*
X119490565Y-81780810D01*
X119468028Y-81846945D01*
X119413313Y-81890397D01*
X119366679Y-81899500D01*
X117300097Y-81899500D01*
X117233058Y-81879815D01*
X117212416Y-81863181D01*
X116336818Y-80987583D01*
X116303333Y-80926260D01*
X116300499Y-80899902D01*
X116300499Y-80124500D01*
X116320184Y-80057461D01*
X116372988Y-80011706D01*
X116424499Y-80000500D01*
X118624724Y-80000500D01*
X118691763Y-80020185D01*
G37*
%TD.AperFunction*%
%TA.AperFunction,Conductor*%
G36*
X137442539Y-76020185D02*
G01*
X137488294Y-76072989D01*
X137499500Y-76124500D01*
X137499500Y-119375500D01*
X137479815Y-119442539D01*
X137427011Y-119488294D01*
X137375500Y-119499500D01*
X113124500Y-119499500D01*
X113057461Y-119479815D01*
X113011706Y-119427011D01*
X113000500Y-119375500D01*
X113000500Y-115897648D01*
X116199500Y-115897648D01*
X116199500Y-116102351D01*
X116231522Y-116304534D01*
X116294781Y-116499223D01*
X116387715Y-116681613D01*
X116508028Y-116847213D01*
X116652786Y-116991971D01*
X116762892Y-117071966D01*
X116818390Y-117112287D01*
X116934607Y-117171503D01*
X117000776Y-117205218D01*
X117000778Y-117205218D01*
X117000781Y-117205220D01*
X117105137Y-117239127D01*
X117195465Y-117268477D01*
X117296557Y-117284488D01*
X117397648Y-117300500D01*
X117397649Y-117300500D01*
X117602351Y-117300500D01*
X117602352Y-117300500D01*
X117804534Y-117268477D01*
X117999219Y-117205220D01*
X118181610Y-117112287D01*
X118274590Y-117044732D01*
X118347213Y-116991971D01*
X118347215Y-116991968D01*
X118347219Y-116991966D01*
X118491966Y-116847219D01*
X118491968Y-116847215D01*
X118491971Y-116847213D01*
X118612284Y-116681614D01*
X118612285Y-116681613D01*
X118612287Y-116681610D01*
X118619117Y-116668204D01*
X118667091Y-116617409D01*
X118729602Y-116600500D01*
X119229636Y-116600500D01*
X119296675Y-116620185D01*
X119340120Y-116668203D01*
X119346953Y-116681614D01*
X119387715Y-116761614D01*
X119508028Y-116927213D01*
X119652786Y-117071971D01*
X119807749Y-117184556D01*
X119818390Y-117192287D01*
X119934607Y-117251503D01*
X120000776Y-117285218D01*
X120000778Y-117285218D01*
X120000781Y-117285220D01*
X120105137Y-117319127D01*
X120195465Y-117348477D01*
X120296557Y-117364488D01*
X120397648Y-117380500D01*
X120397649Y-117380500D01*
X120602351Y-117380500D01*
X120602352Y-117380500D01*
X120804534Y-117348477D01*
X120999219Y-117285220D01*
X121181610Y-117192287D01*
X121274590Y-117124732D01*
X121347213Y-117071971D01*
X121347215Y-117071968D01*
X121347219Y-117071966D01*
X121491966Y-116927219D01*
X121491968Y-116927215D01*
X121491971Y-116927213D01*
X121550093Y-116847213D01*
X121612287Y-116761610D01*
X121705220Y-116579219D01*
X121768477Y-116384534D01*
X121800500Y-116182352D01*
X121800500Y-115977648D01*
X121768477Y-115775466D01*
X121763825Y-115761151D01*
X121761832Y-115691312D01*
X121794075Y-115635158D01*
X123687502Y-113741732D01*
X123748825Y-113708247D01*
X123818517Y-113713231D01*
X123862864Y-113741732D01*
X123936344Y-113815212D01*
X124085666Y-113907314D01*
X124252203Y-113962499D01*
X124354991Y-113973000D01*
X126555008Y-113972999D01*
X126657797Y-113962499D01*
X126824334Y-113907314D01*
X126973656Y-113815212D01*
X127097712Y-113691156D01*
X127189814Y-113541834D01*
X127244999Y-113375297D01*
X127255500Y-113272509D01*
X127255499Y-112054514D01*
X128735000Y-112054514D01*
X128735000Y-112290485D01*
X128765799Y-112524414D01*
X128826870Y-112752337D01*
X128917160Y-112970319D01*
X128917165Y-112970328D01*
X129035144Y-113174671D01*
X129035145Y-113174672D01*
X129097721Y-113256223D01*
X129933958Y-112419987D01*
X129958978Y-112480390D01*
X130030112Y-112586851D01*
X130120649Y-112677388D01*
X130227110Y-112748522D01*
X130287511Y-112773541D01*
X129451275Y-113609777D01*
X129532827Y-113672354D01*
X129532828Y-113672355D01*
X129737171Y-113790334D01*
X129737180Y-113790339D01*
X129955163Y-113880629D01*
X129955161Y-113880629D01*
X130183085Y-113941700D01*
X130417014Y-113972499D01*
X130417029Y-113972500D01*
X130652971Y-113972500D01*
X130652985Y-113972499D01*
X130886914Y-113941700D01*
X131114837Y-113880629D01*
X131332819Y-113790339D01*
X131332828Y-113790334D01*
X131537181Y-113672350D01*
X131618723Y-113609779D01*
X131618723Y-113609776D01*
X130782487Y-112773541D01*
X130842890Y-112748522D01*
X130949351Y-112677388D01*
X131039888Y-112586851D01*
X131111022Y-112480390D01*
X131136041Y-112419987D01*
X131972276Y-113256223D01*
X131972279Y-113256223D01*
X132034850Y-113174681D01*
X132152834Y-112970328D01*
X132152839Y-112970319D01*
X132243129Y-112752337D01*
X132304200Y-112524414D01*
X132334999Y-112290485D01*
X132335000Y-112290471D01*
X132335000Y-112054528D01*
X132334999Y-112054514D01*
X132304200Y-111820585D01*
X132243129Y-111592662D01*
X132152839Y-111374680D01*
X132152834Y-111374671D01*
X132034855Y-111170328D01*
X132034854Y-111170327D01*
X131972277Y-111088775D01*
X131136041Y-111925011D01*
X131111022Y-111864610D01*
X131039888Y-111758149D01*
X130949351Y-111667612D01*
X130842890Y-111596478D01*
X130782488Y-111571458D01*
X131618723Y-110735221D01*
X131537172Y-110672645D01*
X131537171Y-110672644D01*
X131332828Y-110554665D01*
X131332819Y-110554660D01*
X131114836Y-110464370D01*
X131114838Y-110464370D01*
X130886914Y-110403299D01*
X130652985Y-110372500D01*
X130417014Y-110372500D01*
X130183085Y-110403299D01*
X129955162Y-110464370D01*
X129737180Y-110554660D01*
X129737171Y-110554665D01*
X129532828Y-110672644D01*
X129532818Y-110672650D01*
X129451275Y-110735220D01*
X129451275Y-110735221D01*
X130287512Y-111571458D01*
X130227110Y-111596478D01*
X130120649Y-111667612D01*
X130030112Y-111758149D01*
X129958978Y-111864610D01*
X129933958Y-111925012D01*
X129097721Y-111088775D01*
X129097720Y-111088775D01*
X129035150Y-111170318D01*
X129035144Y-111170328D01*
X128917165Y-111374671D01*
X128917160Y-111374680D01*
X128826870Y-111592662D01*
X128765799Y-111820585D01*
X128735000Y-112054514D01*
X127255499Y-112054514D01*
X127255499Y-111072492D01*
X127244999Y-110969703D01*
X127189814Y-110803166D01*
X127097712Y-110653844D01*
X126973656Y-110529788D01*
X126824334Y-110437686D01*
X126657797Y-110382501D01*
X126657795Y-110382500D01*
X126555010Y-110372000D01*
X124354998Y-110372000D01*
X124354981Y-110372001D01*
X124252203Y-110382500D01*
X124252200Y-110382501D01*
X124085668Y-110437685D01*
X124085663Y-110437687D01*
X123936342Y-110529789D01*
X123812289Y-110653842D01*
X123720187Y-110803163D01*
X123720185Y-110803168D01*
X123713886Y-110822178D01*
X123665001Y-110969703D01*
X123665001Y-110969704D01*
X123665000Y-110969704D01*
X123654500Y-111072483D01*
X123654500Y-112024902D01*
X123634815Y-112091941D01*
X123618181Y-112112583D01*
X120944842Y-114785921D01*
X120883519Y-114819406D01*
X120818848Y-114816173D01*
X120804534Y-114811522D01*
X120629995Y-114783878D01*
X120602352Y-114779500D01*
X120397648Y-114779500D01*
X120373329Y-114783351D01*
X120195465Y-114811522D01*
X120000776Y-114874781D01*
X119818386Y-114967715D01*
X119652786Y-115088028D01*
X119508034Y-115232780D01*
X119459749Y-115299239D01*
X119424042Y-115348385D01*
X119368714Y-115391051D01*
X119323725Y-115399500D01*
X118729602Y-115399500D01*
X118662563Y-115379815D01*
X118619117Y-115331795D01*
X118612284Y-115318385D01*
X118491971Y-115152786D01*
X118347213Y-115008028D01*
X118181613Y-114887715D01*
X118181612Y-114887714D01*
X118181610Y-114887713D01*
X118124653Y-114858691D01*
X117999223Y-114794781D01*
X117804534Y-114731522D01*
X117629995Y-114703878D01*
X117602352Y-114699500D01*
X117397648Y-114699500D01*
X117373329Y-114703351D01*
X117195465Y-114731522D01*
X117000776Y-114794781D01*
X116818386Y-114887715D01*
X116652786Y-115008028D01*
X116508028Y-115152786D01*
X116387715Y-115318386D01*
X116294781Y-115500776D01*
X116231522Y-115695465D01*
X116199500Y-115897648D01*
X113000500Y-115897648D01*
X113000500Y-85979054D01*
X113299498Y-85979054D01*
X113340423Y-86131785D01*
X113369358Y-86181900D01*
X113369359Y-86181904D01*
X113369360Y-86181904D01*
X113419479Y-86268714D01*
X113419481Y-86268717D01*
X113538349Y-86387585D01*
X113538355Y-86387590D01*
X114663181Y-87512416D01*
X114696666Y-87573739D01*
X114699500Y-87600097D01*
X114699500Y-88600001D01*
X114699501Y-88600019D01*
X114710000Y-88702796D01*
X114710001Y-88702799D01*
X114757856Y-88847213D01*
X114765186Y-88869334D01*
X114857288Y-89018656D01*
X114981344Y-89142712D01*
X115130666Y-89234814D01*
X115297203Y-89289999D01*
X115297209Y-89289999D01*
X115301448Y-89290907D01*
X115362884Y-89324185D01*
X115396576Y-89385394D01*
X115399500Y-89412162D01*
X115399500Y-93413330D01*
X115399499Y-93413348D01*
X115399499Y-93579054D01*
X115399498Y-93579054D01*
X115440423Y-93731785D01*
X115469358Y-93781900D01*
X115469359Y-93781904D01*
X115469360Y-93781904D01*
X115519479Y-93868714D01*
X115519481Y-93868717D01*
X115638349Y-93987585D01*
X115638355Y-93987590D01*
X115638584Y-93987819D01*
X115672069Y-94049142D01*
X115667085Y-94118834D01*
X115625213Y-94174767D01*
X115559749Y-94199184D01*
X115550904Y-94199500D01*
X115399999Y-94199500D01*
X115399980Y-94199501D01*
X115297203Y-94210000D01*
X115297200Y-94210001D01*
X115130668Y-94265185D01*
X115130663Y-94265187D01*
X114981342Y-94357289D01*
X114857289Y-94481342D01*
X114765187Y-94630663D01*
X114765185Y-94630668D01*
X114764979Y-94631290D01*
X114710001Y-94797203D01*
X114710001Y-94797204D01*
X114710000Y-94797204D01*
X114699500Y-94899983D01*
X114699500Y-96100001D01*
X114699501Y-96100018D01*
X114710000Y-96202796D01*
X114710001Y-96202799D01*
X114757856Y-96347213D01*
X114765186Y-96369334D01*
X114857288Y-96518656D01*
X114981344Y-96642712D01*
X115130666Y-96734814D01*
X115297203Y-96789999D01*
X115297209Y-96789999D01*
X115301448Y-96790907D01*
X115362884Y-96824185D01*
X115396576Y-96885394D01*
X115399500Y-96912162D01*
X115399500Y-100413330D01*
X115399499Y-100413348D01*
X115399499Y-100579054D01*
X115399498Y-100579054D01*
X115404167Y-100596478D01*
X115440423Y-100731785D01*
X115440424Y-100731786D01*
X115445457Y-100740504D01*
X115519477Y-100868712D01*
X115519481Y-100868717D01*
X115638349Y-100987585D01*
X115638354Y-100987589D01*
X116631284Y-101980520D01*
X116631286Y-101980521D01*
X116631290Y-101980524D01*
X116768209Y-102059573D01*
X116768216Y-102059577D01*
X116920943Y-102100501D01*
X116920945Y-102100501D01*
X117069904Y-102100501D01*
X117099344Y-102109145D01*
X117129331Y-102115669D01*
X117134346Y-102119423D01*
X117136943Y-102120186D01*
X117157585Y-102136820D01*
X117168181Y-102147416D01*
X117201666Y-102208739D01*
X117204500Y-102235097D01*
X117204500Y-102484902D01*
X117184815Y-102551941D01*
X117168181Y-102572583D01*
X117019481Y-102721282D01*
X117019479Y-102721284D01*
X116997801Y-102758833D01*
X116988638Y-102774705D01*
X116940423Y-102858215D01*
X116899499Y-103010943D01*
X116899499Y-103010945D01*
X116899499Y-103179046D01*
X116899500Y-103179059D01*
X116899500Y-104610397D01*
X116879815Y-104677436D01*
X116831800Y-104720879D01*
X116818389Y-104727712D01*
X116652786Y-104848028D01*
X116508028Y-104992786D01*
X116387715Y-105158386D01*
X116294781Y-105340776D01*
X116231522Y-105535465D01*
X116199500Y-105737648D01*
X116199500Y-105942351D01*
X116231522Y-106144534D01*
X116294781Y-106339223D01*
X116387715Y-106521613D01*
X116508028Y-106687213D01*
X116652786Y-106831971D01*
X116762892Y-106911966D01*
X116818390Y-106952287D01*
X116934607Y-107011503D01*
X117000776Y-107045218D01*
X117000778Y-107045218D01*
X117000781Y-107045220D01*
X117105137Y-107079127D01*
X117195465Y-107108477D01*
X117296557Y-107124488D01*
X117397648Y-107140500D01*
X117397649Y-107140500D01*
X117602351Y-107140500D01*
X117602352Y-107140500D01*
X117804534Y-107108477D01*
X117999219Y-107045220D01*
X118181610Y-106952287D01*
X118274590Y-106884732D01*
X118347213Y-106831971D01*
X118347215Y-106831968D01*
X118347219Y-106831966D01*
X118491966Y-106687219D01*
X118491968Y-106687215D01*
X118491971Y-106687213D01*
X118554164Y-106601610D01*
X118612287Y-106521610D01*
X118705220Y-106339219D01*
X118768477Y-106144534D01*
X118800500Y-105942352D01*
X118800500Y-105737648D01*
X118768477Y-105535466D01*
X118748881Y-105475157D01*
X118739127Y-105445137D01*
X118705220Y-105340781D01*
X118705218Y-105340778D01*
X118705218Y-105340776D01*
X118653047Y-105238386D01*
X118612287Y-105158390D01*
X118550093Y-105072786D01*
X118491971Y-104992786D01*
X118347213Y-104848028D01*
X118181610Y-104727712D01*
X118168200Y-104720879D01*
X118117406Y-104672903D01*
X118100500Y-104610397D01*
X118100500Y-103734499D01*
X118120185Y-103667460D01*
X118172989Y-103621705D01*
X118224500Y-103610499D01*
X118775500Y-103610499D01*
X118842539Y-103630184D01*
X118888294Y-103682988D01*
X118899500Y-103734499D01*
X118899500Y-104833330D01*
X118899499Y-104833348D01*
X118899499Y-104999054D01*
X118899498Y-104999054D01*
X118940423Y-105151785D01*
X118969358Y-105201900D01*
X118969359Y-105201904D01*
X118969360Y-105201904D01*
X119019479Y-105288714D01*
X119019481Y-105288717D01*
X119138349Y-105407585D01*
X119138355Y-105407590D01*
X119205922Y-105475157D01*
X119239407Y-105536480D01*
X119236173Y-105601155D01*
X119231522Y-105615468D01*
X119199500Y-105817648D01*
X119199500Y-106022351D01*
X119231522Y-106224534D01*
X119294781Y-106419223D01*
X119387715Y-106601613D01*
X119508028Y-106767213D01*
X119652786Y-106911971D01*
X119807749Y-107024556D01*
X119818390Y-107032287D01*
X119934607Y-107091503D01*
X120000776Y-107125218D01*
X120000778Y-107125218D01*
X120000781Y-107125220D01*
X120105137Y-107159127D01*
X120195465Y-107188477D01*
X120296557Y-107204488D01*
X120397648Y-107220500D01*
X120397649Y-107220500D01*
X120602351Y-107220500D01*
X120602352Y-107220500D01*
X120804534Y-107188477D01*
X120999219Y-107125220D01*
X121181610Y-107032287D01*
X121274590Y-106964732D01*
X121347213Y-106911971D01*
X121347215Y-106911968D01*
X121347219Y-106911966D01*
X121491966Y-106767219D01*
X121491968Y-106767215D01*
X121491971Y-106767213D01*
X121550093Y-106687213D01*
X121612287Y-106601610D01*
X121705220Y-106419219D01*
X121768477Y-106224534D01*
X121800500Y-106022352D01*
X121800500Y-105817648D01*
X121768477Y-105615466D01*
X121705220Y-105420781D01*
X121705218Y-105420778D01*
X121705218Y-105420776D01*
X121664455Y-105340776D01*
X121612287Y-105238390D01*
X121585776Y-105201900D01*
X121491971Y-105072786D01*
X121347213Y-104928028D01*
X121181613Y-104807715D01*
X121181612Y-104807714D01*
X121181610Y-104807713D01*
X121124653Y-104778691D01*
X120999223Y-104714781D01*
X120804534Y-104651522D01*
X120629995Y-104623878D01*
X120602352Y-104619500D01*
X120397648Y-104619500D01*
X120243897Y-104643851D01*
X120174604Y-104634896D01*
X120121152Y-104589900D01*
X120100513Y-104523148D01*
X120100500Y-104521378D01*
X120100500Y-103602454D01*
X120120185Y-103535415D01*
X120172989Y-103489660D01*
X120242147Y-103479716D01*
X120278535Y-103491649D01*
X120278616Y-103491455D01*
X120281171Y-103492513D01*
X120282960Y-103493100D01*
X120284242Y-103493785D01*
X120284243Y-103493785D01*
X120284244Y-103493786D01*
X120470873Y-103571091D01*
X120628547Y-103602454D01*
X120668992Y-103610499D01*
X120668996Y-103610500D01*
X120668997Y-103610500D01*
X120871004Y-103610500D01*
X120871005Y-103610499D01*
X121069127Y-103571091D01*
X121255756Y-103493786D01*
X121423718Y-103381558D01*
X121566558Y-103238718D01*
X121678786Y-103070756D01*
X121756091Y-102884127D01*
X121795500Y-102686003D01*
X121795500Y-102033997D01*
X121756091Y-101835873D01*
X121678786Y-101649244D01*
X121678784Y-101649241D01*
X121678782Y-101649237D01*
X121566558Y-101481281D01*
X121423721Y-101338444D01*
X121400145Y-101322691D01*
X121355341Y-101269078D01*
X121355147Y-101268631D01*
X121351592Y-101260375D01*
X121329577Y-101178215D01*
X121280633Y-101093442D01*
X121250520Y-101041284D01*
X121138716Y-100929480D01*
X121138715Y-100929479D01*
X121134385Y-100925149D01*
X121134374Y-100925139D01*
X120136819Y-99927584D01*
X120103334Y-99866261D01*
X120100500Y-99839903D01*
X120100500Y-96697344D01*
X120102923Y-96689089D01*
X120101638Y-96680584D01*
X120112618Y-96656071D01*
X120120185Y-96630305D01*
X120126685Y-96624672D01*
X120130203Y-96616820D01*
X120152695Y-96602134D01*
X120172989Y-96584550D01*
X120181502Y-96583325D01*
X120188707Y-96578622D01*
X120215564Y-96578428D01*
X120242147Y-96574606D01*
X120251800Y-96578166D01*
X120258575Y-96578118D01*
X120280109Y-96588609D01*
X120290784Y-96592547D01*
X120294152Y-96594677D01*
X120318390Y-96612287D01*
X120336922Y-96621729D01*
X120341783Y-96624804D01*
X120361205Y-96646893D01*
X120382588Y-96667088D01*
X120384200Y-96673047D01*
X120387918Y-96677276D01*
X120391177Y-96698840D01*
X120399499Y-96729601D01*
X120399499Y-96796554D01*
X120399498Y-96796554D01*
X120440423Y-96949285D01*
X120469358Y-96999400D01*
X120469359Y-96999404D01*
X120469360Y-96999404D01*
X120519479Y-97086214D01*
X120519481Y-97086217D01*
X120638349Y-97205085D01*
X120638355Y-97205090D01*
X123618181Y-100184916D01*
X123651666Y-100246239D01*
X123654500Y-100272597D01*
X123654500Y-102272501D01*
X123654501Y-102272518D01*
X123665000Y-102375296D01*
X123665001Y-102375299D01*
X123713885Y-102522819D01*
X123720186Y-102541834D01*
X123812288Y-102691156D01*
X123936344Y-102815212D01*
X124085666Y-102907314D01*
X124252203Y-102962499D01*
X124354991Y-102973000D01*
X126555008Y-102972999D01*
X126657797Y-102962499D01*
X126824334Y-102907314D01*
X126973656Y-102815212D01*
X127097712Y-102691156D01*
X127189814Y-102541834D01*
X127244999Y-102375297D01*
X127255500Y-102272509D01*
X127255499Y-101054514D01*
X128735000Y-101054514D01*
X128735000Y-101290485D01*
X128765799Y-101524414D01*
X128826870Y-101752337D01*
X128917160Y-101970319D01*
X128917165Y-101970328D01*
X129035144Y-102174671D01*
X129035145Y-102174672D01*
X129097721Y-102256223D01*
X129933958Y-101419987D01*
X129958978Y-101480390D01*
X130030112Y-101586851D01*
X130120649Y-101677388D01*
X130227110Y-101748522D01*
X130287511Y-101773541D01*
X129451275Y-102609777D01*
X129532827Y-102672354D01*
X129532828Y-102672355D01*
X129737171Y-102790334D01*
X129737180Y-102790339D01*
X129955163Y-102880629D01*
X129955161Y-102880629D01*
X130183085Y-102941700D01*
X130417014Y-102972499D01*
X130417029Y-102972500D01*
X130652971Y-102972500D01*
X130652985Y-102972499D01*
X130886914Y-102941700D01*
X131114837Y-102880629D01*
X131332819Y-102790339D01*
X131332828Y-102790334D01*
X131537181Y-102672350D01*
X131618723Y-102609779D01*
X131618723Y-102609776D01*
X130782487Y-101773541D01*
X130842890Y-101748522D01*
X130949351Y-101677388D01*
X131039888Y-101586851D01*
X131111022Y-101480390D01*
X131136041Y-101419987D01*
X131972276Y-102256223D01*
X131972279Y-102256223D01*
X132034850Y-102174681D01*
X132152834Y-101970328D01*
X132152839Y-101970319D01*
X132243129Y-101752337D01*
X132304200Y-101524414D01*
X132334999Y-101290485D01*
X132335000Y-101290471D01*
X132335000Y-101054528D01*
X132334999Y-101054514D01*
X132304200Y-100820585D01*
X132243129Y-100592662D01*
X132152839Y-100374680D01*
X132152834Y-100374671D01*
X132034855Y-100170328D01*
X132034854Y-100170327D01*
X131972277Y-100088775D01*
X131136041Y-100925011D01*
X131111022Y-100864610D01*
X131039888Y-100758149D01*
X130949351Y-100667612D01*
X130842890Y-100596478D01*
X130782488Y-100571458D01*
X131618723Y-99735221D01*
X131537172Y-99672645D01*
X131537171Y-99672644D01*
X131332828Y-99554665D01*
X131332819Y-99554660D01*
X131114836Y-99464370D01*
X131114838Y-99464370D01*
X130886914Y-99403299D01*
X130652985Y-99372500D01*
X130417014Y-99372500D01*
X130183085Y-99403299D01*
X129955162Y-99464370D01*
X129737180Y-99554660D01*
X129737171Y-99554665D01*
X129532828Y-99672644D01*
X129532818Y-99672650D01*
X129451275Y-99735220D01*
X129451275Y-99735221D01*
X130287512Y-100571458D01*
X130227110Y-100596478D01*
X130120649Y-100667612D01*
X130030112Y-100758149D01*
X129958978Y-100864610D01*
X129933958Y-100925012D01*
X129097721Y-100088775D01*
X129097720Y-100088775D01*
X129035150Y-100170318D01*
X129035144Y-100170328D01*
X128917165Y-100374671D01*
X128917160Y-100374680D01*
X128826870Y-100592662D01*
X128765799Y-100820585D01*
X128735000Y-101054514D01*
X127255499Y-101054514D01*
X127255499Y-100072492D01*
X127244999Y-99969703D01*
X127189814Y-99803166D01*
X127097712Y-99653844D01*
X126973656Y-99529788D01*
X126824334Y-99437686D01*
X126657797Y-99382501D01*
X126657795Y-99382500D01*
X126555016Y-99372000D01*
X126555009Y-99372000D01*
X124555097Y-99372000D01*
X124488058Y-99352315D01*
X124467416Y-99335681D01*
X121820420Y-96688685D01*
X121786935Y-96627362D01*
X121791919Y-96557670D01*
X121833791Y-96501737D01*
X121835165Y-96500723D01*
X121847219Y-96491966D01*
X121991966Y-96347219D01*
X121991968Y-96347215D01*
X121991971Y-96347213D01*
X122096892Y-96202799D01*
X122112287Y-96181610D01*
X122205220Y-95999219D01*
X122268477Y-95804534D01*
X122300500Y-95602352D01*
X122300500Y-95397648D01*
X122268477Y-95195466D01*
X122205220Y-95000781D01*
X122205218Y-95000778D01*
X122205218Y-95000776D01*
X122153865Y-94899991D01*
X122112287Y-94818390D01*
X122075834Y-94768216D01*
X121991971Y-94652786D01*
X121847213Y-94508028D01*
X121681613Y-94387715D01*
X121681612Y-94387714D01*
X121681610Y-94387713D01*
X121621898Y-94357288D01*
X121499223Y-94294781D01*
X121304534Y-94231522D01*
X121129995Y-94203878D01*
X121102352Y-94199500D01*
X120897648Y-94199500D01*
X120873329Y-94203351D01*
X120695465Y-94231522D01*
X120500776Y-94294781D01*
X120318390Y-94387712D01*
X120297385Y-94402974D01*
X120231578Y-94426453D01*
X120163524Y-94410627D01*
X120114830Y-94360521D01*
X120100500Y-94302655D01*
X120100500Y-89381995D01*
X123619500Y-89381995D01*
X123619500Y-89618004D01*
X123619501Y-89618020D01*
X123650306Y-89852010D01*
X123711394Y-90079993D01*
X123801714Y-90298045D01*
X123801719Y-90298056D01*
X123872677Y-90420957D01*
X123919727Y-90502450D01*
X123919729Y-90502453D01*
X123919730Y-90502454D01*
X124063406Y-90689697D01*
X124063412Y-90689704D01*
X124230295Y-90856587D01*
X124230302Y-90856593D01*
X124246633Y-90869124D01*
X124417550Y-91000273D01*
X124548918Y-91076118D01*
X124621943Y-91118280D01*
X124621948Y-91118282D01*
X124621951Y-91118284D01*
X124840007Y-91208606D01*
X125067986Y-91269693D01*
X125301989Y-91300500D01*
X125301996Y-91300500D01*
X125538004Y-91300500D01*
X125538011Y-91300500D01*
X125772014Y-91269693D01*
X125999993Y-91208606D01*
X126218049Y-91118284D01*
X126422450Y-91000273D01*
X126609699Y-90856592D01*
X126776592Y-90689699D01*
X126920273Y-90502450D01*
X127038284Y-90298049D01*
X127128606Y-90079993D01*
X127189693Y-89852014D01*
X127220500Y-89618011D01*
X127220500Y-89381989D01*
X127189693Y-89147986D01*
X127128606Y-88920007D01*
X127038284Y-88701951D01*
X127038282Y-88701948D01*
X127038280Y-88701943D01*
X126982510Y-88605348D01*
X126920273Y-88497550D01*
X126845442Y-88400028D01*
X126845430Y-88400013D01*
X128700000Y-88400013D01*
X128700000Y-89250000D01*
X129899999Y-89250000D01*
X129874979Y-89310402D01*
X129850000Y-89435981D01*
X129850000Y-89564019D01*
X129874979Y-89689598D01*
X129899999Y-89750000D01*
X128700001Y-89750000D01*
X128700001Y-90599986D01*
X128710494Y-90702697D01*
X128765641Y-90869119D01*
X128765643Y-90869124D01*
X128857684Y-91018345D01*
X128981654Y-91142315D01*
X129130875Y-91234356D01*
X129130880Y-91234358D01*
X129297302Y-91289505D01*
X129297309Y-91289506D01*
X129400019Y-91299999D01*
X130249999Y-91299999D01*
X130250000Y-91299998D01*
X130250000Y-90100001D01*
X130310402Y-90125021D01*
X130435981Y-90150000D01*
X130564019Y-90150000D01*
X130689598Y-90125021D01*
X130750000Y-90100001D01*
X130750000Y-91299999D01*
X131599972Y-91299999D01*
X131599986Y-91299998D01*
X131702697Y-91289505D01*
X131869119Y-91234358D01*
X131869124Y-91234356D01*
X132018345Y-91142315D01*
X132142315Y-91018345D01*
X132234356Y-90869124D01*
X132234358Y-90869119D01*
X132289505Y-90702697D01*
X132289506Y-90702690D01*
X132299999Y-90599986D01*
X132300000Y-90599973D01*
X132300000Y-89750000D01*
X131100001Y-89750000D01*
X131125021Y-89689598D01*
X131150000Y-89564019D01*
X131150000Y-89435981D01*
X131125021Y-89310402D01*
X131100001Y-89250000D01*
X132299999Y-89250000D01*
X132299999Y-88400028D01*
X132299998Y-88400013D01*
X132289505Y-88297302D01*
X132234358Y-88130880D01*
X132234356Y-88130875D01*
X132142315Y-87981654D01*
X132018345Y-87857684D01*
X131869124Y-87765643D01*
X131869119Y-87765641D01*
X131702697Y-87710494D01*
X131702690Y-87710493D01*
X131599986Y-87700000D01*
X130750000Y-87700000D01*
X130750000Y-88899998D01*
X130689598Y-88874979D01*
X130564019Y-88850000D01*
X130435981Y-88850000D01*
X130310402Y-88874979D01*
X130250000Y-88899998D01*
X130250000Y-87700000D01*
X129400028Y-87700000D01*
X129400012Y-87700001D01*
X129297302Y-87710494D01*
X129130880Y-87765641D01*
X129130875Y-87765643D01*
X128981654Y-87857684D01*
X128857684Y-87981654D01*
X128765643Y-88130875D01*
X128765641Y-88130880D01*
X128710494Y-88297302D01*
X128710493Y-88297309D01*
X128700000Y-88400013D01*
X126845430Y-88400013D01*
X126776593Y-88310302D01*
X126776587Y-88310295D01*
X126609704Y-88143412D01*
X126609697Y-88143406D01*
X126422454Y-87999730D01*
X126422453Y-87999729D01*
X126422450Y-87999727D01*
X126340957Y-87952677D01*
X126218056Y-87881719D01*
X126218045Y-87881714D01*
X125999993Y-87791394D01*
X125772010Y-87730306D01*
X125538020Y-87699501D01*
X125538017Y-87699500D01*
X125538011Y-87699500D01*
X125301989Y-87699500D01*
X125301983Y-87699500D01*
X125301979Y-87699501D01*
X125067989Y-87730306D01*
X124840006Y-87791394D01*
X124621954Y-87881714D01*
X124621943Y-87881719D01*
X124417545Y-87999730D01*
X124230302Y-88143406D01*
X124230295Y-88143412D01*
X124063412Y-88310295D01*
X124063406Y-88310302D01*
X123919730Y-88497545D01*
X123919727Y-88497549D01*
X123919727Y-88497550D01*
X123918761Y-88499223D01*
X123801719Y-88701943D01*
X123801714Y-88701954D01*
X123711394Y-88920006D01*
X123650306Y-89147989D01*
X123619501Y-89381979D01*
X123619500Y-89381995D01*
X120100500Y-89381995D01*
X120100500Y-89197344D01*
X120120185Y-89130305D01*
X120172989Y-89084550D01*
X120242147Y-89074606D01*
X120297385Y-89097026D01*
X120308918Y-89105405D01*
X120318388Y-89112286D01*
X120500776Y-89205218D01*
X120500778Y-89205218D01*
X120500781Y-89205220D01*
X120591856Y-89234812D01*
X120695465Y-89268477D01*
X120796557Y-89284488D01*
X120897648Y-89300500D01*
X120897649Y-89300500D01*
X121102351Y-89300500D01*
X121102352Y-89300500D01*
X121304534Y-89268477D01*
X121499219Y-89205220D01*
X121681610Y-89112287D01*
X121810482Y-89018657D01*
X121847213Y-88991971D01*
X121847215Y-88991968D01*
X121847219Y-88991966D01*
X121991966Y-88847219D01*
X121991968Y-88847215D01*
X121991971Y-88847213D01*
X122096892Y-88702799D01*
X122112287Y-88681610D01*
X122205220Y-88499219D01*
X122268477Y-88304534D01*
X122300500Y-88102352D01*
X122300500Y-87897648D01*
X122268477Y-87695466D01*
X122205220Y-87500781D01*
X122205218Y-87500778D01*
X122205218Y-87500776D01*
X122153865Y-87399992D01*
X122112287Y-87318390D01*
X122096892Y-87297200D01*
X121991971Y-87152786D01*
X121847213Y-87008028D01*
X121681613Y-86887715D01*
X121681612Y-86887714D01*
X121681610Y-86887713D01*
X121621898Y-86857288D01*
X121499223Y-86794781D01*
X121304534Y-86731522D01*
X121129995Y-86703878D01*
X121102352Y-86699500D01*
X120897648Y-86699500D01*
X120873329Y-86703351D01*
X120695465Y-86731522D01*
X120500776Y-86794781D01*
X120318390Y-86887712D01*
X120297385Y-86902974D01*
X120231578Y-86926453D01*
X120163524Y-86910627D01*
X120114830Y-86860521D01*
X120100500Y-86802655D01*
X120100500Y-85720097D01*
X120120185Y-85653058D01*
X120136819Y-85632416D01*
X120829757Y-84939478D01*
X121975159Y-83794075D01*
X122036480Y-83760592D01*
X122101154Y-83763826D01*
X122115466Y-83768477D01*
X122317648Y-83800500D01*
X122317649Y-83800500D01*
X122522351Y-83800500D01*
X122522352Y-83800500D01*
X122724534Y-83768477D01*
X122919219Y-83705220D01*
X123101610Y-83612287D01*
X123194590Y-83544732D01*
X123267213Y-83491971D01*
X123267215Y-83491968D01*
X123267219Y-83491966D01*
X123411966Y-83347219D01*
X123411968Y-83347215D01*
X123411971Y-83347213D01*
X123464732Y-83274590D01*
X123532287Y-83181610D01*
X123625220Y-82999219D01*
X123688477Y-82804534D01*
X123720500Y-82602352D01*
X123720500Y-82397682D01*
X131280000Y-82397682D01*
X131280000Y-82602317D01*
X131312009Y-82804417D01*
X131375244Y-82999031D01*
X131468141Y-83181350D01*
X131468147Y-83181359D01*
X131500523Y-83225921D01*
X131500524Y-83225922D01*
X132180000Y-82546446D01*
X132180000Y-82552661D01*
X132207259Y-82654394D01*
X132259920Y-82745606D01*
X132334394Y-82820080D01*
X132425606Y-82872741D01*
X132527339Y-82900000D01*
X132533553Y-82900000D01*
X131854076Y-83579474D01*
X131898650Y-83611859D01*
X132080968Y-83704755D01*
X132275582Y-83767990D01*
X132477683Y-83800000D01*
X132682317Y-83800000D01*
X132884417Y-83767990D01*
X133079031Y-83704755D01*
X133261349Y-83611859D01*
X133305921Y-83579474D01*
X132626447Y-82900000D01*
X132632661Y-82900000D01*
X132734394Y-82872741D01*
X132825606Y-82820080D01*
X132900080Y-82745606D01*
X132952741Y-82654394D01*
X132980000Y-82552661D01*
X132980000Y-82546447D01*
X133659474Y-83225921D01*
X133691859Y-83181349D01*
X133784755Y-82999031D01*
X133847990Y-82804417D01*
X133880000Y-82602317D01*
X133880000Y-82397682D01*
X133847990Y-82195582D01*
X133784755Y-82000968D01*
X133691859Y-81818650D01*
X133659474Y-81774077D01*
X133659474Y-81774076D01*
X132980000Y-82453551D01*
X132980000Y-82447339D01*
X132952741Y-82345606D01*
X132900080Y-82254394D01*
X132825606Y-82179920D01*
X132734394Y-82127259D01*
X132632661Y-82100000D01*
X132626446Y-82100000D01*
X133305922Y-81420524D01*
X133305921Y-81420523D01*
X133261359Y-81388147D01*
X133261350Y-81388141D01*
X133079031Y-81295244D01*
X132884417Y-81232009D01*
X132682317Y-81200000D01*
X132477683Y-81200000D01*
X132275582Y-81232009D01*
X132080968Y-81295244D01*
X131898644Y-81388143D01*
X131854077Y-81420523D01*
X131854077Y-81420524D01*
X132533554Y-82100000D01*
X132527339Y-82100000D01*
X132425606Y-82127259D01*
X132334394Y-82179920D01*
X132259920Y-82254394D01*
X132207259Y-82345606D01*
X132180000Y-82447339D01*
X132180000Y-82453553D01*
X131500524Y-81774077D01*
X131500523Y-81774077D01*
X131468143Y-81818644D01*
X131375244Y-82000968D01*
X131312009Y-82195582D01*
X131280000Y-82397682D01*
X123720500Y-82397682D01*
X123720500Y-82397648D01*
X123712257Y-82345606D01*
X123688477Y-82195465D01*
X123657458Y-82100000D01*
X123625220Y-82000781D01*
X123625218Y-82000778D01*
X123625218Y-82000776D01*
X123586352Y-81924499D01*
X123532287Y-81818390D01*
X123500092Y-81774077D01*
X123411971Y-81652786D01*
X123267213Y-81508028D01*
X123101613Y-81387715D01*
X123101612Y-81387714D01*
X123101610Y-81387713D01*
X123044653Y-81358691D01*
X122919223Y-81294781D01*
X122724534Y-81231522D01*
X122549995Y-81203878D01*
X122522352Y-81199500D01*
X122317648Y-81199500D01*
X122293329Y-81203351D01*
X122115465Y-81231522D01*
X121920776Y-81294781D01*
X121738386Y-81387715D01*
X121572786Y-81508028D01*
X121428028Y-81652786D01*
X121307715Y-81818385D01*
X121300883Y-81831795D01*
X121252909Y-81882591D01*
X121190398Y-81899500D01*
X120633321Y-81899500D01*
X120566282Y-81879815D01*
X120520527Y-81827011D01*
X120510583Y-81757853D01*
X120539608Y-81694297D01*
X120577026Y-81665015D01*
X120681349Y-81611859D01*
X120725921Y-81579474D01*
X120046447Y-80900000D01*
X120052661Y-80900000D01*
X120154394Y-80872741D01*
X120245606Y-80820080D01*
X120320080Y-80745606D01*
X120372741Y-80654394D01*
X120400000Y-80552661D01*
X120400000Y-80546447D01*
X121079474Y-81225921D01*
X121111859Y-81181349D01*
X121204755Y-80999031D01*
X121267990Y-80804417D01*
X121300000Y-80602317D01*
X121300000Y-80518547D01*
X121319685Y-80451508D01*
X121372489Y-80405753D01*
X121441647Y-80395809D01*
X121505203Y-80424834D01*
X121511681Y-80430866D01*
X121572786Y-80491971D01*
X121693226Y-80579474D01*
X121738390Y-80612287D01*
X121821030Y-80654394D01*
X121920776Y-80705218D01*
X121920778Y-80705218D01*
X121920781Y-80705220D01*
X122025137Y-80739127D01*
X122115465Y-80768477D01*
X122216557Y-80784488D01*
X122317648Y-80800500D01*
X122317649Y-80800500D01*
X122522351Y-80800500D01*
X122522352Y-80800500D01*
X122724534Y-80768477D01*
X122919219Y-80705220D01*
X123101610Y-80612287D01*
X123194590Y-80544732D01*
X123267213Y-80491971D01*
X123267215Y-80491968D01*
X123267219Y-80491966D01*
X123411966Y-80347219D01*
X123411968Y-80347215D01*
X123411971Y-80347213D01*
X123479407Y-80254394D01*
X123532287Y-80181610D01*
X123625220Y-79999219D01*
X123688477Y-79804534D01*
X123720500Y-79602352D01*
X123720500Y-79397682D01*
X131280000Y-79397682D01*
X131280000Y-79602317D01*
X131312009Y-79804417D01*
X131375244Y-79999031D01*
X131468141Y-80181350D01*
X131468147Y-80181359D01*
X131500523Y-80225921D01*
X131500524Y-80225922D01*
X132180000Y-79546446D01*
X132180000Y-79552661D01*
X132207259Y-79654394D01*
X132259920Y-79745606D01*
X132334394Y-79820080D01*
X132425606Y-79872741D01*
X132527339Y-79900000D01*
X132533553Y-79900000D01*
X131854076Y-80579474D01*
X131898650Y-80611859D01*
X132080968Y-80704755D01*
X132275582Y-80767990D01*
X132477683Y-80800000D01*
X132682317Y-80800000D01*
X132884417Y-80767990D01*
X133079031Y-80704755D01*
X133261349Y-80611859D01*
X133305921Y-80579474D01*
X132626447Y-79900000D01*
X132632661Y-79900000D01*
X132734394Y-79872741D01*
X132825606Y-79820080D01*
X132900080Y-79745606D01*
X132952741Y-79654394D01*
X132980000Y-79552661D01*
X132980000Y-79546447D01*
X133659474Y-80225921D01*
X133691859Y-80181349D01*
X133784755Y-79999031D01*
X133847990Y-79804417D01*
X133880000Y-79602317D01*
X133880000Y-79397682D01*
X133847990Y-79195582D01*
X133784755Y-79000968D01*
X133691859Y-78818650D01*
X133659474Y-78774077D01*
X133659474Y-78774076D01*
X132980000Y-79453551D01*
X132980000Y-79447339D01*
X132952741Y-79345606D01*
X132900080Y-79254394D01*
X132825606Y-79179920D01*
X132734394Y-79127259D01*
X132632661Y-79100000D01*
X132626446Y-79100000D01*
X133305922Y-78420524D01*
X133305921Y-78420523D01*
X133261359Y-78388147D01*
X133261350Y-78388141D01*
X133079031Y-78295244D01*
X132884417Y-78232009D01*
X132682317Y-78200000D01*
X132477683Y-78200000D01*
X132275582Y-78232009D01*
X132080968Y-78295244D01*
X131898644Y-78388143D01*
X131854077Y-78420523D01*
X131854077Y-78420524D01*
X132533554Y-79100000D01*
X132527339Y-79100000D01*
X132425606Y-79127259D01*
X132334394Y-79179920D01*
X132259920Y-79254394D01*
X132207259Y-79345606D01*
X132180000Y-79447339D01*
X132180000Y-79453553D01*
X131500524Y-78774077D01*
X131500523Y-78774077D01*
X131468143Y-78818644D01*
X131375244Y-79000968D01*
X131312009Y-79195582D01*
X131280000Y-79397682D01*
X123720500Y-79397682D01*
X123720500Y-79397648D01*
X123712257Y-79345606D01*
X123688477Y-79195465D01*
X123657458Y-79100000D01*
X123625220Y-79000781D01*
X123625218Y-79000778D01*
X123625218Y-79000776D01*
X123591503Y-78934607D01*
X123532287Y-78818390D01*
X123500092Y-78774077D01*
X123411971Y-78652786D01*
X123267213Y-78508028D01*
X123101613Y-78387715D01*
X123101612Y-78387714D01*
X123101610Y-78387713D01*
X123044653Y-78358691D01*
X122919223Y-78294781D01*
X122724534Y-78231522D01*
X122549995Y-78203878D01*
X122522352Y-78199500D01*
X122317648Y-78199500D01*
X122293329Y-78203351D01*
X122115465Y-78231522D01*
X121920776Y-78294781D01*
X121738386Y-78387715D01*
X121572786Y-78508028D01*
X121428030Y-78652784D01*
X121358575Y-78748384D01*
X121303245Y-78791051D01*
X121258256Y-78799500D01*
X114294313Y-78799500D01*
X114136198Y-78799500D01*
X113983471Y-78840423D01*
X113983470Y-78840423D01*
X113983468Y-78840424D01*
X113983465Y-78840425D01*
X113933352Y-78869359D01*
X113933351Y-78869360D01*
X113889945Y-78894420D01*
X113846541Y-78919479D01*
X113846538Y-78919481D01*
X113419481Y-79346538D01*
X113419479Y-79346541D01*
X113369361Y-79433350D01*
X113369359Y-79433352D01*
X113340425Y-79483465D01*
X113340424Y-79483466D01*
X113324544Y-79542728D01*
X113299499Y-79636199D01*
X113299499Y-79636201D01*
X113299499Y-79804302D01*
X113299500Y-79804315D01*
X113299500Y-85813330D01*
X113299499Y-85813348D01*
X113299499Y-85979054D01*
X113299498Y-85979054D01*
X113000500Y-85979054D01*
X113000500Y-76124500D01*
X113020185Y-76057461D01*
X113072989Y-76011706D01*
X113124500Y-76000500D01*
X137375500Y-76000500D01*
X137442539Y-76020185D01*
G37*
%TD.AperFunction*%
%TD*%
M02*
